<svg xmlns="http://www.w3.org/2000/svg" viewBox="0 0 32 32" width="512" height="512" shape-rendering="crispEdges" role="img" aria-label="RepoRadar bookmark buddy" xmlns:c2pa="http://c2pa.org/manifest"><metadata><c2pa:manifest>AAAWgmp1bWIAAAAeanVtZGMycGEAEQAQgAAAqgA4m3EDYzJwYQAAABZcanVtYgAAAEdqdW1kYzJtYQARABCAAACqADibcQN1cm46YzJwYTplMmI1OGYzZC05Zjg4LTQyNjktODJhOS05NDNlNWY1NzA5NTQAAAADl2p1bWIAAAApanVtZGMyYXMAEQAQgAAAqgA4m3EDYzJwYS5hc3NlcnRpb25zAAAAALxqdW1iAAAARGp1bWRjYm9yABEAEIAAAKoAOJtxE2MycGEuaW5ncmVkaWVudC52MwAAAAAYYzJzaACiCiv+2hNVovsJ88GoG1AAAABwY2JvcqNpZGM6Zm9ybWF0bWltYWdlL3N2Zyt4bWxqaW5zdGFuY2VJRHgseG1wOmlpZDo4ODljZTE1MC1lMjJhLTRkOTAtYjQxYS1mNDU5ZjQ1Y2NhYzRscmVsYXRpb25zaGlwaHBhcmVudE9mAAAB4mp1bWIAAABBanVtZGNib3IAEQAQgAAAqgA4m3ETYzJwYS5hY3Rpb25zLnYyAAAAABhjMnNoYXu8lenASEsc0d58sb1onQAAAZljYm9yomdhY3Rpb25zgqJmYWN0aW9ua2MycGEub3BlbmVkanBhcmFtZXRlcnOha2luZ3JlZGllbnRzgaJjdXJseC1zZWxmI2p1bWJmPWMycGEuYXNzZXJ0aW9ucy9jMnBhLmluZ3JlZGllbnQudjNkaGFzaFgg1hwj7HzzTm33UbMWTQslqA5P22G5DPkhsLJhmpn0vsekZmFjdGlvbngdY29tLmFudGhyb3BpYy5jbGF1ZGUucHJvdmlkZWRqcGFyYW1ldGVyc6F4H2NvbS5hbnRocm9waWMub3JpZ2luLWNvbmZpZGVuY2VndW5rbm93bmtkZXNjcmlwdGlvbnhmQ2xhdWRlIHByb3ZpZGVkIHRoaXMgZmlsZSBhdCB0aGUgcmVxdWVzdCBvZiBhIHVzZXIgYW5kIG1heSBoYXZlIGNyZWF0ZWQgb3IgbW9kaWZpZWQgdGhlIGZpbGUgY29udGVudHMubXNvZnR3YXJlQWdlbnShZG5hbWVmQ2xhdWRlcmFsbEFjdGlvbnNJbmNsdWRlZPUAAADIanVtYgAAAEBqdW1kY2JvcgARABCAAACqADibcRNjMnBhLmhhc2guZGF0YQAAAAAYYzJzaBWQeoLbb02d1Fc3RDMI+pIAAACAY2JvcqVjYWxnZnNoYTI1NmNwYWRNAAAAAAAAAAAAAAAAAGRoYXNoWCDxHs14JmUPBRNVWLUnCeeHitK3T7ygRZtPu8KUqPr+EWRuYW1lbmp1bWJmIG1hbmlmZXN0amV4Y2x1c2lvbnOBomVzdGFydBjiZmxlbmd0aBkeBAAAAj5qdW1iAAAAJ2p1bWRjMmNsABEAEIAAAKoAOJtxA2MycGEuY2xhaW0udjIAAAACD2Nib3KlY2FsZ2ZzaGEyNTZpc2lnbmF0dXJleE1zZWxmI2p1bWJmPS9jMnBhL3VybjpjMnBhOmUyYjU4ZjNkLTlmODgtNDI2OS04MmE5LTk0M2U1ZjU3MDk1NC9jMnBhLnNpZ25hdHVyZWppbnN0YW5jZUlEeCx4bXA6aWlkOjcxYTE4MWIxLTM2MDAtNGI5Zi1iYmY2LTc1N2EyOGNlYmEzNHJjcmVhdGVkX2Fzc2VydGlvbnODomN1cmx4LXNlbGYjanVtYmY9YzJwYS5hc3NlcnRpb25zL2MycGEuaW5ncmVkaWVudC52M2RoYXNoWCDWHCPsfPNObfdRsxZNCyWoDk/bYbkM+SGwsmGamfS+x6JjdXJseCpzZWxmI2p1bWJmPWMycGEuYXNzZXJ0aW9ucy9jMnBhLmFjdGlvbnMudjJkaGFzaFggDm1HzKbcYfCRYN9gsqCKYmQQNXUU8igqDpTG4uVQDwOiY3VybHgpc2VsZiNqdW1iZj1jMnBhLmFzc2VydGlvbnMvYzJwYS5oYXNoLmRhdGFkaGFzaFgg5ckNYZgitMJfksJaIeAA9KMt0+aFZ3H2/aWD/V67EJZ0Y2xhaW1fZ2VuZXJhdG9yX2luZm+jZG5hbWVvQW50aHJvcGljIEZpbGVzZ3ZlcnNpb25lMS4wLjBrc3BlY1ZlcnNpb25lMi40LjAAABA4anVtYgAAAChqdW1kYzJjcwARABCAAACqADibcQNjMnBhLnNpZ25hdHVyZQAAABAIY2JvctKEWQISogEmGCFZAgowggIGMIIBjaADAgECAhRA5aAK7sI50L64g/oGQgU9Z1UTADAKBggqhkjOPQQDAzBJMRcwFQYDVQQKEw5BbnRocm9waWMsIFBCQzEuMCwGA1UEAxMlQW50aHJvcGljIENvbnRlbnQgQ3JlZGVudGlhbHMgUm9vdCBDQTAeFw0yNjA4MDcxODQzNTZaFw0yODA4MDYxOTQzNTZaMEQxFzAVBgNVBAoTDkFudGhyb3BpYywgUEJDMSkwJwYDVQQDEyBBbnRocm9waWMgQ2xhdWRlIENvbnRlbnQgU2lnbmluZzBZMBMGByqGSM49AgEGCCqGSM49AwEHA0IABJh6CmvLUBgFFNU0vUKlOVtE6djd17L5SuwX0LemFisBM3dkd/3cyjxFA3Qo5S46fX0/ihY0VZ7mfb9KF703t5OjWDBWMA4GA1UdDwEB/wQEAwIHgDAVBgNVHSUEDjAMBgorBgEEAYPoXgIBMAwGA1UdEwEB/wQCMAAwHwYDVR0jBBgwFoAUzlHiBIFOZFsj+OPEz5o+nMHXXMIwCgYIKoZIzj0EAwMDZwAwZAIwMXMdFJ4BetLLVY7ORuE9noqbbAZOZn/aArXyTwFAZfKrPzxF2vPoJNf1+UCdg1XGAjBwX1zd9WGqYkqmL5SFqw1QySjr1zJfpJM9+1rdDwSPLMOPOjKuiXjoU/pUUeG9RwmhY3BhZFkNngAAAAAAAAAAAAAAAAAAAAAAAAAAAAAAAAAAAAAAAAAAAAAAAAAAAAAAAAAAAAAAAAAAAAAAAAAAAAAAAAAAAAAAAAAAAAAAAAAAAAAAAAAAAAAAAAAAAAAAAAAAAAAAAAAAAAAAAAAAAAAAAAAAAAAAAAAAAAAAAAAAAAAAAAAAAAAAAAAAAAAAAAAAAAAAAAAAAAAAAAAAAAAAAAAAAAAAAAAAAAAAAAAAAAAAAAAAAAAAAAAAAAAAAAAAAAAAAAAAAAAAAAAAAAAAAAAAAAAAAAAAAAAAAAAAAAAAAAAAAAAAAAAAAAAAAAAAAAAAAAAAAAAAAAAAAAAAAAAAAAAAAAAAAAAAAAAAAAAAAAAAAAAAAAAAAAAAAAAAAAAAAAAAAAAAAAAAAAAAAAAAAAAAAAAAAAAAAAAAAAAAAAAAAAAAAAAAAAAAAAAAAAAAAAAAAAAAAAAAAAAAAAAAAAAAAAAAAAAAAAAAAAAAAAAAAAAAAAAAAAAAAAAAAAAAAAAAAAAAAAAAAAAAAAAAAAAAAAAAAAAAAAAAAAAAAAAAAAAAAAAAAAAAAAAAAAAAAAAAAAAAAAAAAAAAAAAAAAAAAAAAAAAAAAAAAAAAAAAAAAAAAAAAAAAAAAAAAAAAAAAAAAAAAAAAAAAAAAAAAAAAAAAAAAAAAAAAAAAAAAAAAAAAAAAAAAAAAAAAAAAAAAAAAAAAAAAAAAAAAAAAAAAAAAAAAAAAAAAAAAAAAAAAAAAAAAAAAAAAAAAAAAAAAAAAAAAAAAAAAAAAAAAAAAAAAAAAAAAAAAAAAAAAAAAAAAAAAAAAAAAAAAAAAAAAAAAAAAAAAAAAAAAAAAAAAAAAAAAAAAAAAAAAAAAAAAAAAAAAAAAAAAAAAAAAAAAAAAAAAAAAAAAAAAAAAAAAAAAAAAAAAAAAAAAAAAAAAAAAAAAAAAAAAAAAAAAAAAAAAAAAAAAAAAAAAAAAAAAAAAAAAAAAAAAAAAAAAAAAAAAAAAAAAAAAAAAAAAAAAAAAAAAAAAAAAAAAAAAAAAAAAAAAAAAAAAAAAAAAAAAAAAAAAAAAAAAAAAAAAAAAAAAAAAAAAAAAAAAAAAAAAAAAAAAAAAAAAAAAAAAAAAAAAAAAAAAAAAAAAAAAAAAAAAAAAAAAAAAAAAAAAAAAAAAAAAAAAAAAAAAAAAAAAAAAAAAAAAAAAAAAAAAAAAAAAAAAAAAAAAAAAAAAAAAAAAAAAAAAAAAAAAAAAAAAAAAAAAAAAAAAAAAAAAAAAAAAAAAAAAAAAAAAAAAAAAAAAAAAAAAAAAAAAAAAAAAAAAAAAAAAAAAAAAAAAAAAAAAAAAAAAAAAAAAAAAAAAAAAAAAAAAAAAAAAAAAAAAAAAAAAAAAAAAAAAAAAAAAAAAAAAAAAAAAAAAAAAAAAAAAAAAAAAAAAAAAAAAAAAAAAAAAAAAAAAAAAAAAAAAAAAAAAAAAAAAAAAAAAAAAAAAAAAAAAAAAAAAAAAAAAAAAAAAAAAAAAAAAAAAAAAAAAAAAAAAAAAAAAAAAAAAAAAAAAAAAAAAAAAAAAAAAAAAAAAAAAAAAAAAAAAAAAAAAAAAAAAAAAAAAAAAAAAAAAAAAAAAAAAAAAAAAAAAAAAAAAAAAAAAAAAAAAAAAAAAAAAAAAAAAAAAAAAAAAAAAAAAAAAAAAAAAAAAAAAAAAAAAAAAAAAAAAAAAAAAAAAAAAAAAAAAAAAAAAAAAAAAAAAAAAAAAAAAAAAAAAAAAAAAAAAAAAAAAAAAAAAAAAAAAAAAAAAAAAAAAAAAAAAAAAAAAAAAAAAAAAAAAAAAAAAAAAAAAAAAAAAAAAAAAAAAAAAAAAAAAAAAAAAAAAAAAAAAAAAAAAAAAAAAAAAAAAAAAAAAAAAAAAAAAAAAAAAAAAAAAAAAAAAAAAAAAAAAAAAAAAAAAAAAAAAAAAAAAAAAAAAAAAAAAAAAAAAAAAAAAAAAAAAAAAAAAAAAAAAAAAAAAAAAAAAAAAAAAAAAAAAAAAAAAAAAAAAAAAAAAAAAAAAAAAAAAAAAAAAAAAAAAAAAAAAAAAAAAAAAAAAAAAAAAAAAAAAAAAAAAAAAAAAAAAAAAAAAAAAAAAAAAAAAAAAAAAAAAAAAAAAAAAAAAAAAAAAAAAAAAAAAAAAAAAAAAAAAAAAAAAAAAAAAAAAAAAAAAAAAAAAAAAAAAAAAAAAAAAAAAAAAAAAAAAAAAAAAAAAAAAAAAAAAAAAAAAAAAAAAAAAAAAAAAAAAAAAAAAAAAAAAAAAAAAAAAAAAAAAAAAAAAAAAAAAAAAAAAAAAAAAAAAAAAAAAAAAAAAAAAAAAAAAAAAAAAAAAAAAAAAAAAAAAAAAAAAAAAAAAAAAAAAAAAAAAAAAAAAAAAAAAAAAAAAAAAAAAAAAAAAAAAAAAAAAAAAAAAAAAAAAAAAAAAAAAAAAAAAAAAAAAAAAAAAAAAAAAAAAAAAAAAAAAAAAAAAAAAAAAAAAAAAAAAAAAAAAAAAAAAAAAAAAAAAAAAAAAAAAAAAAAAAAAAAAAAAAAAAAAAAAAAAAAAAAAAAAAAAAAAAAAAAAAAAAAAAAAAAAAAAAAAAAAAAAAAAAAAAAAAAAAAAAAAAAAAAAAAAAAAAAAAAAAAAAAAAAAAAAAAAAAAAAAAAAAAAAAAAAAAAAAAAAAAAAAAAAAAAAAAAAAAAAAAAAAAAAAAAAAAAAAAAAAAAAAAAAAAAAAAAAAAAAAAAAAAAAAAAAAAAAAAAAAAAAAAAAAAAAAAAAAAAAAAAAAAAAAAAAAAAAAAAAAAAAAAAAAAAAAAAAAAAAAAAAAAAAAAAAAAAAAAAAAAAAAAAAAAAAAAAAAAAAAAAAAAAAAAAAAAAAAAAAAAAAAAAAAAAAAAAAAAAAAAAAAAAAAAAAAAAAAAAAAAAAAAAAAAAAAAAAAAAAAAAAAAAAAAAAAAAAAAAAAAAAAAAAAAAAAAAAAAAAAAAAAAAAAAAAAAAAAAAAAAAAAAAAAAAAAAAAAAAAAAAAAAAAAAAAAAAAAAAAAAAAAAAAAAAAAAAAAAAAAAAAAAAAAAAAAAAAAAAAAAAAAAAAAAAAAAAAAAAAAAAAAAAAAAAAAAAAAAAAAAAAAAAAAAAAAAAAAAAAAAAAAAAAAAAAAAAAAAAAAAAAAAAAAAAAAAAAAAAAAAAAAAAAAAAAAAAAAAAAAAAAAAAAAAAAAAAAAAAAAAAAAAAAAAAAAAAAAAAAAAAAAAAAAAAAAAAAAAAAAAAAAAAAAAAAAAAAAAAAAAAAAAAAAAAAAAAAAAAAAAAAAAAAAAAAAAAAAAAAAAAAAAAAAAAAAAAAAAAAAAAAAAAAAAAAAAAAAAAAAAAAAAAAAAAAAAAAAAAAAAAAAAAAAAAAAAAAAAAAAAAAAAAAAAAAAAAAAAAAAAAAAAAAAAAAAAAAAAAAAAAAAAAAAAAAAAAAAAAAAAAAAAAAAAAAAAAAAAAAAAAAAAAAAAAAAAAAAAAAAAAAAAAAAAAAAAAAAAAAAAAAAAAAAAAAAAAAAAAAAAAAAAAAAAAAAAAAAAAAAAAAAAAAAAAAAAAAAAAAAAAAAAAAAAAAAAAAAAAAAAAAAAAAAAAAAAAAAAAAAAAAAAAAAAAAAAAAAAAAAAAAAAAAAAAAAAAAAAAAAAAAAAAAAAAAAAAAAAAAAAAAAAAAAAAAAAAAAAAAAAAAAAAAAAAAAAAAAAAAAAAAAAAAAAAAAAAAAAAAAAAAAAAAAAAAAAAAAAAAAAAAAAAAAAAAAAAAAAAAAAAAAAAAAAAAAAAAAAAAAAAAAAAAAAAAAAAAAAAAAAAAAAAAAAAAAAAAAAAAAAAAAAAAAAAAAAAAAAAAAAAAAAAAAAAAAAAAAAAAAAAAAAAAAAAAAAAAAAAAAAAAAAAAAAAAAAAAAAAAAAAAAAAAAAAAAAAAAAAAAAAAAAAAAAAAAAAAAAAAAAAAAAAAAAAAAAAAAAAAAAAAAAAAAAAAAAAAAAAAAAAAAAAAAAAAAAAAAAAAAAAAAAAAAAAAAAAAAAAAAAAAAAAAAAAAAAAAAAAAAAAAAAAAAAAAAAAAAAAAAAAAAAAAAAAAAAAAAAAAAAAAAAAAAAAAAAAAAAAAAAAAAAAAAAAAAAAAAAAAAAAAAAAAAAAAAAAAAAAAAAAAAAAAAAAAAAAAAAAAAAAAAAAAAAAAAAAAAAAAAAAAAAAAAAAAAAAAAAAAAAAAAAAAAAAAAAAAAAAAAAAAAAAAAAAAAAAAAAAAAAAAAAAAAAAAAAAAAAAAAAAAAAAAAAAAAAAAAAAAAAAAAAAAAAAAAAAAAAAAAAAAAAAAAAAAAAAAAAAAAAAAAAAAAAAAAAAAAAAAAAAAAAAAAAAAAAAAAAAAAAAAAAAAAAAAAAAAAAAAAAAAAAAAAAAAAAAAAAAAAAAAAAAAAAAAAAAAAAAAAAAAAAAAAAAAAAAAAAAAAAAAAAAAAAAAAAAAAAAAAAAAAAAAAAAAAAAAAAAAAAAAAAAAAAAAAAAAAAAAAAAAAAAAAAAAAAAAAAAAAAAAAAAAAAAAAAAAAAAAAAAAAAAAAAAAAAAAAAAAAAAAAAAAAAAAAAAAAAAAAAAAAAAAAAAAAAAAAAAAAAAAAAAAAAAAAAAAAAAAAAAAAAAAPZYQCZoaBWboMtgFfdDeEyTWa1+E8ImsJE+SRkhoAmJTy8BIoje490Wwd9MnRu+2dDZi678TglWUK7hoYdIz0arZHw=</c2pa:manifest></metadata>
<title>RepoRadar bookmark buddy</title>
<path fill="#FFFFFF" d="M7 2h18v1h-18zM7 3h1v1h-1zM24 3h1v1h-1zM7 4h1v1h-1zM24 4h1v1h-1zM7 5h1v1h-1zM24 5h1v1h-1zM7 6h1v1h-1zM24 6h1v1h-1zM7 7h1v1h-1zM24 7h1v1h-1zM7 8h1v1h-1zM24 8h1v1h-1zM7 9h1v1h-1zM24 9h1v1h-1zM7 10h1v1h-1zM12 10h1v1h-1zM18 10h1v1h-1zM24 10h1v1h-1zM7 11h1v1h-1zM24 11h1v1h-1zM7 12h1v1h-1zM24 12h1v1h-1zM7 13h1v1h-1zM24 13h1v1h-1zM7 14h1v1h-1zM24 14h1v1h-1zM7 15h1v1h-1zM24 15h1v1h-1zM7 16h1v1h-1zM24 16h1v1h-1zM7 17h1v1h-1zM24 17h1v1h-1zM7 18h1v1h-1zM24 18h1v1h-1zM7 19h1v1h-1zM24 19h1v1h-1zM7 20h1v1h-1zM24 20h1v1h-1zM7 21h1v1h-1zM24 21h1v1h-1zM7 22h1v1h-1zM24 22h1v1h-1zM7 23h1v1h-1zM24 23h1v1h-1zM7 24h1v1h-1zM15 24h2v1h-2zM24 24h1v1h-1zM7 25h1v1h-1zM14 25h4v1h-4zM24 25h1v1h-1zM7 26h1v1h-1zM13 26h2v1h-2zM17 26h2v1h-2zM24 26h1v1h-1zM7 27h1v1h-1zM12 27h2v1h-2zM18 27h2v1h-2zM24 27h1v1h-1zM7 28h1v1h-1zM11 28h2v1h-2zM19 28h2v1h-2zM24 28h1v1h-1zM7 29h1v1h-1zM10 29h2v1h-2zM20 29h2v1h-2zM24 29h1v1h-1zM7 30h4v1h-4zM21 30h4v1h-4z"/>
<path fill="#6B1230" d="M8 3h16v1h-16zM8 4h1v1h-1zM23 4h1v1h-1zM8 5h1v1h-1zM23 5h1v1h-1zM8 6h1v1h-1zM23 6h1v1h-1zM8 7h1v1h-1zM23 7h1v1h-1zM8 8h1v1h-1zM23 8h1v1h-1zM8 9h1v1h-1zM23 9h1v1h-1zM8 10h1v1h-1zM23 10h1v1h-1zM8 11h1v1h-1zM23 11h1v1h-1zM8 12h1v1h-1zM23 12h1v1h-1zM8 13h1v1h-1zM23 13h1v1h-1zM8 14h1v1h-1zM23 14h1v1h-1zM8 15h1v1h-1zM23 15h1v1h-1zM8 16h1v1h-1zM23 16h1v1h-1zM8 17h1v1h-1zM23 17h1v1h-1zM8 18h1v1h-1zM23 18h1v1h-1zM8 19h1v1h-1zM23 19h1v1h-1zM8 20h1v1h-1zM23 20h1v1h-1zM8 21h1v1h-1zM23 21h1v1h-1zM8 22h1v1h-1zM23 22h1v1h-1zM8 23h1v1h-1zM15 23h2v1h-2zM23 23h1v1h-1zM8 24h1v1h-1zM14 24h1v1h-1zM17 24h1v1h-1zM23 24h1v1h-1zM8 25h1v1h-1zM13 25h1v1h-1zM18 25h1v1h-1zM23 25h1v1h-1zM8 26h1v1h-1zM12 26h1v1h-1zM19 26h1v1h-1zM23 26h1v1h-1zM8 27h1v1h-1zM11 27h1v1h-1zM20 27h1v1h-1zM23 27h1v1h-1zM8 28h1v1h-1zM10 28h1v1h-1zM21 28h1v1h-1zM23 28h1v1h-1zM8 29h2v1h-2zM22 29h2v1h-2z"/>
<path fill="#FF9DAE" d="M9 4h1v1h-1zM9 5h1v1h-1zM9 6h1v1h-1zM9 7h1v1h-1zM9 8h1v1h-1zM9 9h1v1h-1zM9 10h1v1h-1zM9 11h1v1h-1zM9 12h1v1h-1zM9 13h1v1h-1zM9 14h1v1h-1zM9 15h1v1h-1zM9 16h1v1h-1zM9 17h1v1h-1zM9 18h1v1h-1zM9 19h1v1h-1zM9 20h1v1h-1zM9 21h1v1h-1zM9 22h1v1h-1zM9 23h1v1h-1zM9 24h1v1h-1zM9 25h1v1h-1zM9 26h1v1h-1zM9 27h1v1h-1zM9 28h1v1h-1z"/>
<path fill="#FF6B81" d="M10 4h11v1h-11zM10 5h11v1h-11zM10 6h11v1h-11zM10 7h11v1h-11zM10 8h11v1h-11zM10 9h11v1h-11zM10 10h2v1h-2zM14 10h4v1h-4zM20 10h1v1h-1zM10 11h2v1h-2zM14 11h4v1h-4zM20 11h1v1h-1zM10 12h2v1h-2zM14 12h4v1h-4zM20 12h1v1h-1zM10 13h2v1h-2zM14 13h4v1h-4zM20 13h1v1h-1zM10 14h11v1h-11zM12 15h2v1h-2zM15 15h2v1h-2zM18 15h2v1h-2zM10 16h5v1h-5zM17 16h4v1h-4zM10 17h11v1h-11zM10 18h6v1h-6zM17 18h4v1h-4zM10 19h5v1h-5zM18 19h3v1h-3zM10 20h6v1h-6zM17 20h4v1h-4zM10 21h11v1h-11zM10 22h11v1h-11zM10 23h5v1h-5zM17 23h4v1h-4zM10 24h4v1h-4zM18 24h3v1h-3zM10 25h3v1h-3zM19 25h2v1h-2zM10 26h2v1h-2zM20 26h1v1h-1zM10 27h1v1h-1z"/>
<path fill="#E5486A" d="M21 4h2v1h-2zM21 5h2v1h-2zM21 6h2v1h-2zM21 7h2v1h-2zM21 8h2v1h-2zM21 9h2v1h-2zM21 10h2v1h-2zM21 11h2v1h-2zM21 12h2v1h-2zM21 13h2v1h-2zM21 14h2v1h-2zM22 15h1v1h-1zM21 16h2v1h-2zM21 17h2v1h-2zM21 18h2v1h-2zM21 19h2v1h-2zM21 20h2v1h-2zM21 21h2v1h-2zM21 22h2v1h-2zM21 23h2v1h-2zM21 24h2v1h-2zM21 25h2v1h-2zM21 26h2v1h-2zM21 27h2v1h-2zM22 28h1v1h-1z"/>
<path fill="#2B0A18" d="M13 10h1v1h-1zM19 10h1v1h-1zM12 11h2v1h-2zM18 11h2v1h-2zM12 12h2v1h-2zM18 12h2v1h-2zM12 13h2v1h-2zM18 13h2v1h-2zM14 15h1v1h-1zM17 15h1v1h-1zM15 16h2v1h-2z"/>
<path fill="#FFD0D9" d="M10 15h2v1h-2zM20 15h2v1h-2z"/>
<path fill="#FFE066" d="M16 18h1v1h-1zM15 19h3v1h-3zM16 20h1v1h-1z"/>
</svg>